<svg xmlns="http://www.w3.org/2000/svg" xmlns:xlink="http://www.w3.org/1999/xlink" width="0" height="0" style="display:none;"><symbol viewBox="0 0 66 66" id="icon-email">
<path d="M0.744629 34.8579L16.9039 42.705L51.7929 5.23169L0.744629 34.8579Z" fill="#FF00FF"></path>
<path d="M55.8498 6.74438L20.6676 44.5327L48.0276 57.819L55.8498 6.74438Z" fill="#FF00FF"></path>
<path d="M30.2197 53.618L19.4999 48.4123V65.9259L30.2197 53.618Z" fill="#FF00FF"></path>
</symbol><symbol viewBox="0 0 66 66" id="icon-hardware">
<path d="M3 0C1.34315 0 0 1.34315 0 3V49C0 50.6569 1.34315 52 3 52H63C64.6569 52 66 50.6569 66 49V3C66 1.34315 64.6569 0 63 0H3ZM3 6C3 5.44772 3.44772 5 4 5H62C62.5523 5 63 5.44772 63 6V39C63 39.5523 62.5523 40 62 40H4C3.44771 40 3 39.5523 3 39V6ZM33 43C34.6569 43 36 44.3431 36 46C36 47.6569 34.6569 49 33 49C31.3431 49 30 47.6569 30 46C30 44.3431 31.3431 43 33 43Z" fill="#D9D9D9"></path>
<path d="M18 62C18 59.7909 19.7909 58 22 58H44C46.2091 58 48 59.7909 48 62C48 64.2091 46.2091 66 44 66H22C19.7909 66 18 64.2091 18 62Z" fill="#D9D9D9"></path>
</symbol><symbol viewBox="0 0 66 66" id="icon-job">
<path d="M14.1981 32.3259C14.4944 29.6448 15.9567 27.3151 18.0665 25.8549C19.5339 24.8394 21.3146 24.2444 23.2342 24.2444C25.1539 24.2444 26.9346 24.8394 28.402 25.8549C30.5118 27.3151 31.974 29.6448 32.2704 32.3259C32.3071 32.6576 32.3259 32.9946 32.3259 33.3361V36.3666H14.1426V33.3361C14.1426 32.9946 14.1614 32.6576 14.1981 32.3259Z" fill="#FF00FF"></path>
<path d="M23.2342 22.2342C21.3628 22.2342 19.6895 21.3861 18.5776 20.0532C17.7007 19.0019 17.1731 17.6491 17.1731 16.1731C17.1731 12.8257 19.8868 10.112 23.2342 10.112C26.5817 10.112 29.2953 12.8257 29.2953 16.1731C29.2953 17.6491 28.7677 19.0019 27.8908 20.0532C26.779 21.3861 25.1057 22.2342 23.2342 22.2342Z" fill="#FF00FF"></path>
<path d="M23.7394 47.4787C29.5675 47.4787 34.9051 45.3785 39.0366 41.8936L43.51 46.367L40.6528 49.2243L55.6533 64.2247C58.0203 66.5918 61.858 66.5918 64.225 64.2247C66.592 61.8577 66.592 58.02 64.225 55.653L49.2245 40.6526L46.3672 43.5098L41.8938 39.0364C45.3786 34.9049 47.4787 29.5674 47.4787 23.7393C47.4787 10.6285 36.8502 0 23.7394 0C10.6285 0 0 10.6285 0 23.7393C0 36.8502 10.6285 47.4787 23.7394 47.4787ZM23.7394 43.438C12.8601 43.438 4.04074 34.6186 4.04074 23.7393C4.04074 12.8601 12.8601 4.04074 23.7394 4.04074C34.6186 4.04074 43.438 12.8601 43.438 23.7393C43.438 34.6186 34.6186 43.438 23.7394 43.438Z" fill="#FF00FF"></path>
</symbol><symbol viewBox="0 0 66 66" id="icon-learn">
<path d="M3 24.1928L3 51.3986C1.74417 52.0071 0.849706 53.2544 0.751072 54.7339L0 66H10L9.24893 54.7339C9.15029 53.2544 8.25583 52.0071 7 51.3986L7 26.3746L3 24.1928Z" fill="#FF00FF"></path>
<path d="M11 28.5564V47.8042C11 49.1718 11.6987 50.4446 12.8525 51.1789L30.8995 62.6633C32.1854 63.4816 33.8247 63.498 35.1268 62.7054L54.0798 51.1688C55.2722 50.443 56 49.148 56 47.752V28.0107L32.9998 40.5563L11 28.5564Z" fill="#FF00FF"></path>
<path d="M65.9998 18L33 0L0 18L32.9998 36L65.9998 18Z" fill="#FF00FF"></path>
</symbol><symbol viewBox="0 0 66 66" id="icon-newpage">
<path fill-rule="evenodd" clip-rule="evenodd" d="M22.0005 5C22.0005 2.23858 24.2391 0 27.0005 0H61.0005C63.762 0 66.0005 2.23858 66.0005 5V39C66.0005 41.7614 63.762 44 61.0005 44C58.2391 44 56.0005 41.7614 56.0005 39V17.0711L15.5711 57.5C13.6184 59.4526 10.4526 59.4526 8.5 57.5C6.54738 55.5474 6.54738 52.3816 8.5 50.4289L48.9295 10H27.0005C24.2391 10 22.0005 7.76142 22.0005 5Z" fill="white"></path>
</symbol><symbol viewBox="0 0 66 66" id="icon-resource">
<path d="M37.9377 20.9912H21.1276L34.4308 1.43751L45.0418 17.0339C45.3429 17.0068 45.6478 16.9929 45.956 16.9929V0H65.9999V19.9916H53.1131C54.8852 21.7946 55.9779 24.2644 55.9779 26.9887C55.9779 32.5093 51.491 36.9846 45.956 36.9846C40.421 36.9846 35.934 32.5093 35.934 26.9887C35.934 24.7385 36.6796 22.6618 37.9377 20.9912ZM61.9911 3.99833H49.9648V15.9933H61.9911V3.99833ZM40.1693 16.9929L34.4308 8.55829L28.6924 16.9929H40.1693ZM51.9692 26.9887C51.9692 23.6764 49.277 20.9912 45.956 20.9912C42.635 20.9912 39.9428 23.6764 39.9428 26.9887C39.9428 30.3011 42.635 32.9862 45.956 32.9862C49.277 32.9862 51.9692 30.3011 51.9692 26.9887Z" fill="#FF00FF"></path>
<path d="M38.643 39.53L24.7583 34.1567L13.1011 39.8324L11.1251 36.5572L0 43.0821L13.8266 66.0001L24.9518 59.4751L24.47 58.6765L42.5694 60.3354L65.9578 44.3419L64.7246 42.6198C62.089 38.9394 57.1924 37.664 53.0892 39.5893L51.1809 40.7252L47.5208 45.3003C44.6201 48.9261 39.888 50.5531 35.3709 49.4776L31.0365 48.4456C29.962 48.1898 29.2983 47.1113 29.5542 46.0367C29.81 44.9622 30.8885 44.2985 31.963 44.5544L36.2974 45.5864C39.3088 46.3034 42.4636 45.2187 44.3973 42.8015L44.8187 42.2748L38.643 39.53Z" fill="#FF00FF"></path>
</symbol><symbol viewBox="0 0 66 66" id="icon-software">
<path d="M27 12V8.7247C18.0129 10.9386 10.9387 18.0129 8.72479 27H12V39H0V27H4.62159C6.97804 15.7988 15.7988 6.97799 27 4.62149V0H39V12H27Z" fill="#FF00FF"></path>
<path d="M54 39V27L57.2755 27C55.0616 18.0128 47.9873 10.9385 39.0001 8.72467V4.62146C50.2014 6.97791 59.0222 15.7987 61.3787 27L66 27V39H54Z" fill="#FF00FF"></path>
<path d="M31 16.4309L17.7622 37.8149L23.8396 52.6285C25.154 52.22 26.5513 52 28 52H38C39.4487 52 40.846 52.22 42.1604 52.6285L48.2378 37.8149L35 16.4309V33.3414C37.3304 34.1651 39 36.3875 39 39C39 42.3137 36.3137 45 33 45C29.6863 45 27 42.3137 27 39C27 36.3875 28.6696 34.1651 31 33.3414V16.4309Z" fill="#FF00FF"></path>
<path d="M47.9452 64.9472C47.8367 63.9093 47.5693 62.9187 47.1679 62C45.6248 58.4682 42.1006 56 38 56H28C23.8994 56 20.3752 58.4682 18.8321 62C18.2969 63.2249 18 64.5777 18 65.9999L48 66C48 65.6444 47.9814 65.2932 47.9452 64.9472Z" fill="#FF00FF"></path>
<path d="M33 41C34.1046 41 35 40.1045 35 39C35 37.8954 34.1046 37 33 37C31.8954 37 31 37.8954 31 39C31 40.1045 31.8954 41 33 41Z" fill="#FF00FF"></path>
</symbol></svg>